<svg width="128" height="128" viewBox="0 0 128 128" fill="none" xmlns="http://www.w3.org/2000/svg">
<path d="M63.8062 0C68.2716 3.02638 91.0336 20.6096 63.8062 37.1129C36.5787 20.6096 59.3407 3.02639 63.8062 0Z" fill="#4FC3F7"/>
<path d="M45.0243 44.5662C52.4874 13.8398 23.8313 17.338 18.5118 18.3235C17.5162 23.5889 13.982 51.9535 45.0243 44.5662Z" fill="#4FC3F7"/>
<path d="M37.4943 63.8081C20.8214 36.8577 3.05749 59.3881 0 63.8081C3.05749 68.2281 20.8214 90.7586 37.4943 63.8081Z" fill="#4FC3F7"/>
<path d="M90.5056 63.8081C107.179 36.8577 124.942 59.3881 128 63.8081C124.942 68.2281 107.179 90.7586 90.5056 63.8081Z" fill="#4FC3F7"/>
<path d="M109.488 18.3235C104.169 17.338 75.5125 13.8398 82.9757 44.5662C114.018 51.9535 110.484 23.5889 109.488 18.3235Z" fill="#4FC3F7"/>
<path d="M19.3254 109.522C24.6449 110.508 53.1452 114.16 45.6821 83.4338C14.6398 76.0465 18.174 104.411 19.1696 109.677L19.3254 109.522Z" fill="#4FC3F7"/>
<path d="M64.4639 128C68.9294 124.974 91.6914 107.39 64.4639 90.8871C37.2365 107.39 59.9985 124.974 64.4639 128Z" fill="#4FC3F7"/>
<path d="M83.6335 83.4338C76.1703 114.16 104.826 110.662 110.146 109.677C111.142 104.411 114.676 76.0465 83.6335 83.4338Z" fill="#4FC3F7"/>
<path d="M68.6276 52.271L63.9039 45.9791L59.1803 52.271L51.3454 51.1281L52.5 58.8833L46.1435 63.5589L52.5 68.2345L51.3454 75.9897L59.1803 74.8468L63.9039 81.1387L68.6276 74.8468L76.4625 75.9897L75.3079 68.2345L81.6644 63.5589L75.3079 58.8833L76.4625 51.1281L68.6276 52.271Z" fill="#4FC3F7"/>
</svg>
